<mxfile host="app.diagrams.net" modified="2024-02-12T08:00:37.283Z" agent="Mozilla/5.0 (Windows NT 10.0; Win64; x64) AppleWebKit/537.36 (KHTML, like Gecko) Chrome/121.0.0.0 Safari/537.36" etag="pTHGIKbdZTAFj7WL3Lg3" version="23.1.2" type="github">
  <diagram name="Page-1" id="IqvRb_lSC3RMRsBFaZl_">
    <mxGraphModel dx="802" dy="1902" grid="1" gridSize="10" guides="1" tooltips="1" connect="1" arrows="1" fold="1" page="1" pageScale="1" pageWidth="850" pageHeight="1100" math="0" shadow="0">
      <root>
        <mxCell id="0" />
        <mxCell id="1" parent="0" />
        <mxCell id="xtCrAzxJujVk2PDd50xc-24" style="edgeStyle=orthogonalEdgeStyle;rounded=0;orthogonalLoop=1;jettySize=auto;html=1;entryX=0.5;entryY=0;entryDx=0;entryDy=0;" edge="1" parent="1" source="xtCrAzxJujVk2PDd50xc-1" target="xtCrAzxJujVk2PDd50xc-2">
          <mxGeometry relative="1" as="geometry">
            <Array as="points">
              <mxPoint x="80" y="280" />
            </Array>
          </mxGeometry>
        </mxCell>
        <mxCell id="xtCrAzxJujVk2PDd50xc-1" value="Guest" style="whiteSpace=wrap;html=1;aspect=fixed;" vertex="1" parent="1">
          <mxGeometry x="40" y="160" width="80" height="80" as="geometry" />
        </mxCell>
        <mxCell id="xtCrAzxJujVk2PDd50xc-2" value="Student" style="whiteSpace=wrap;html=1;aspect=fixed;" vertex="1" parent="1">
          <mxGeometry x="40" y="320" width="80" height="80" as="geometry" />
        </mxCell>
        <mxCell id="xtCrAzxJujVk2PDd50xc-3" value="Teacher" style="whiteSpace=wrap;html=1;aspect=fixed;" vertex="1" parent="1">
          <mxGeometry x="40" y="480" width="80" height="80" as="geometry" />
        </mxCell>
        <mxCell id="xtCrAzxJujVk2PDd50xc-7" value="" style="rounded=1;whiteSpace=wrap;html=1;" vertex="1" parent="1">
          <mxGeometry x="165" y="-10" width="520" height="750" as="geometry" />
        </mxCell>
        <mxCell id="xtCrAzxJujVk2PDd50xc-8" value="Payment System" style="whiteSpace=wrap;html=1;aspect=fixed;" vertex="1" parent="1">
          <mxGeometry x="760" y="160" width="80" height="80" as="geometry" />
        </mxCell>
        <mxCell id="xtCrAzxJujVk2PDd50xc-9" value="Admin" style="whiteSpace=wrap;html=1;aspect=fixed;" vertex="1" parent="1">
          <mxGeometry x="760" y="440" width="80" height="80" as="geometry" />
        </mxCell>
        <mxCell id="xtCrAzxJujVk2PDd50xc-12" value="Register / login" style="ellipse;whiteSpace=wrap;html=1;" vertex="1" parent="1">
          <mxGeometry x="330" y="50" width="120" height="80" as="geometry" />
        </mxCell>
        <mxCell id="xtCrAzxJujVk2PDd50xc-13" value="Browse Course" style="ellipse;whiteSpace=wrap;html=1;" vertex="1" parent="1">
          <mxGeometry x="340" y="190" width="120" height="80" as="geometry" />
        </mxCell>
        <mxCell id="xtCrAzxJujVk2PDd50xc-42" style="edgeStyle=orthogonalEdgeStyle;rounded=0;orthogonalLoop=1;jettySize=auto;html=1;exitX=0.5;exitY=0;exitDx=0;exitDy=0;" edge="1" parent="1" source="xtCrAzxJujVk2PDd50xc-14" target="xtCrAzxJujVk2PDd50xc-13">
          <mxGeometry relative="1" as="geometry">
            <Array as="points">
              <mxPoint x="370" y="290" />
            </Array>
          </mxGeometry>
        </mxCell>
        <mxCell id="xtCrAzxJujVk2PDd50xc-14" value="Sign for Course" style="ellipse;whiteSpace=wrap;html=1;" vertex="1" parent="1">
          <mxGeometry x="290" y="310" width="120" height="80" as="geometry" />
        </mxCell>
        <mxCell id="xtCrAzxJujVk2PDd50xc-44" style="edgeStyle=orthogonalEdgeStyle;rounded=0;orthogonalLoop=1;jettySize=auto;html=1;exitX=1;exitY=0.5;exitDx=0;exitDy=0;entryX=0;entryY=0.5;entryDx=0;entryDy=0;" edge="1" parent="1" source="xtCrAzxJujVk2PDd50xc-15" target="xtCrAzxJujVk2PDd50xc-8">
          <mxGeometry relative="1" as="geometry" />
        </mxCell>
        <mxCell id="xtCrAzxJujVk2PDd50xc-15" value="Pay For Course" style="ellipse;whiteSpace=wrap;html=1;" vertex="1" parent="1">
          <mxGeometry x="540" y="230" width="120" height="80" as="geometry" />
        </mxCell>
        <mxCell id="xtCrAzxJujVk2PDd50xc-43" style="edgeStyle=orthogonalEdgeStyle;rounded=0;orthogonalLoop=1;jettySize=auto;html=1;exitX=1;exitY=0.5;exitDx=0;exitDy=0;entryX=0;entryY=1;entryDx=0;entryDy=0;" edge="1" parent="1" source="xtCrAzxJujVk2PDd50xc-16" target="xtCrAzxJujVk2PDd50xc-19">
          <mxGeometry relative="1" as="geometry" />
        </mxCell>
        <mxCell id="xtCrAzxJujVk2PDd50xc-16" value="Grade" style="ellipse;whiteSpace=wrap;html=1;" vertex="1" parent="1">
          <mxGeometry x="290" y="450" width="120" height="80" as="geometry" />
        </mxCell>
        <mxCell id="xtCrAzxJujVk2PDd50xc-17" value="Create Course" style="ellipse;whiteSpace=wrap;html=1;" vertex="1" parent="1">
          <mxGeometry x="305" y="570" width="95" height="70" as="geometry" />
        </mxCell>
        <mxCell id="xtCrAzxJujVk2PDd50xc-18" value="Manage users" style="ellipse;whiteSpace=wrap;html=1;" vertex="1" parent="1">
          <mxGeometry x="520" y="520" width="120" height="80" as="geometry" />
        </mxCell>
        <mxCell id="xtCrAzxJujVk2PDd50xc-19" value="Browse Grades" style="ellipse;whiteSpace=wrap;html=1;" vertex="1" parent="1">
          <mxGeometry x="530" y="400" width="120" height="80" as="geometry" />
        </mxCell>
        <mxCell id="xtCrAzxJujVk2PDd50xc-20" value="Manage Course" style="ellipse;whiteSpace=wrap;html=1;" vertex="1" parent="1">
          <mxGeometry x="370" y="660" width="80" height="60" as="geometry" />
        </mxCell>
        <mxCell id="xtCrAzxJujVk2PDd50xc-22" value="" style="endArrow=none;dashed=1;html=1;rounded=0;entryX=0.5;entryY=0;entryDx=0;entryDy=0;exitX=1;exitY=1;exitDx=0;exitDy=0;" edge="1" parent="1" source="xtCrAzxJujVk2PDd50xc-17" target="xtCrAzxJujVk2PDd50xc-20">
          <mxGeometry width="50" height="50" relative="1" as="geometry">
            <mxPoint x="400" y="610" as="sourcePoint" />
            <mxPoint x="450" y="560" as="targetPoint" />
          </mxGeometry>
        </mxCell>
        <mxCell id="xtCrAzxJujVk2PDd50xc-27" value="" style="endArrow=classic;html=1;rounded=0;exitX=1;exitY=0.25;exitDx=0;exitDy=0;" edge="1" parent="1" source="xtCrAzxJujVk2PDd50xc-1">
          <mxGeometry width="50" height="50" relative="1" as="geometry">
            <mxPoint x="280" y="140" as="sourcePoint" />
            <mxPoint x="330" y="90" as="targetPoint" />
          </mxGeometry>
        </mxCell>
        <mxCell id="xtCrAzxJujVk2PDd50xc-28" value="" style="endArrow=classic;html=1;rounded=0;" edge="1" parent="1" source="xtCrAzxJujVk2PDd50xc-1">
          <mxGeometry width="50" height="50" relative="1" as="geometry">
            <mxPoint x="290" y="280" as="sourcePoint" />
            <mxPoint x="340" y="230" as="targetPoint" />
          </mxGeometry>
        </mxCell>
        <mxCell id="xtCrAzxJujVk2PDd50xc-29" value="" style="endArrow=classic;html=1;rounded=0;exitX=1;exitY=0.5;exitDx=0;exitDy=0;" edge="1" parent="1" source="xtCrAzxJujVk2PDd50xc-2">
          <mxGeometry width="50" height="50" relative="1" as="geometry">
            <mxPoint x="230" y="400" as="sourcePoint" />
            <mxPoint x="280" y="350" as="targetPoint" />
          </mxGeometry>
        </mxCell>
        <mxCell id="xtCrAzxJujVk2PDd50xc-30" value="" style="endArrow=classic;html=1;rounded=0;entryX=0;entryY=0.5;entryDx=0;entryDy=0;" edge="1" parent="1" target="xtCrAzxJujVk2PDd50xc-19">
          <mxGeometry width="50" height="50" relative="1" as="geometry">
            <mxPoint x="120" y="385" as="sourcePoint" />
            <mxPoint x="170" y="335" as="targetPoint" />
          </mxGeometry>
        </mxCell>
        <mxCell id="xtCrAzxJujVk2PDd50xc-33" value="" style="endArrow=classic;html=1;rounded=0;entryX=0;entryY=0.5;entryDx=0;entryDy=0;" edge="1" parent="1" target="xtCrAzxJujVk2PDd50xc-17">
          <mxGeometry width="50" height="50" relative="1" as="geometry">
            <mxPoint x="120" y="520" as="sourcePoint" />
            <mxPoint x="170" y="470" as="targetPoint" />
          </mxGeometry>
        </mxCell>
        <mxCell id="xtCrAzxJujVk2PDd50xc-34" value="Use" style="endArrow=open;endSize=12;dashed=1;html=1;rounded=0;entryX=-0.016;entryY=0.63;entryDx=0;entryDy=0;entryPerimeter=0;exitX=1;exitY=0.5;exitDx=0;exitDy=0;" edge="1" parent="1" source="xtCrAzxJujVk2PDd50xc-14" target="xtCrAzxJujVk2PDd50xc-15">
          <mxGeometry x="-1" y="-1672" width="160" relative="1" as="geometry">
            <mxPoint x="420" y="349.23" as="sourcePoint" />
            <mxPoint x="580" y="349.23" as="targetPoint" />
            <mxPoint x="-598" y="191" as="offset" />
          </mxGeometry>
        </mxCell>
        <mxCell id="xtCrAzxJujVk2PDd50xc-35" value="" style="endArrow=classic;html=1;rounded=0;entryX=0.008;entryY=0.642;entryDx=0;entryDy=0;entryPerimeter=0;" edge="1" parent="1" target="xtCrAzxJujVk2PDd50xc-16">
          <mxGeometry width="50" height="50" relative="1" as="geometry">
            <mxPoint x="120" y="505" as="sourcePoint" />
            <mxPoint x="170" y="455" as="targetPoint" />
          </mxGeometry>
        </mxCell>
        <mxCell id="xtCrAzxJujVk2PDd50xc-36" value="" style="endArrow=classic;html=1;rounded=0;exitX=1;exitY=0.75;exitDx=0;exitDy=0;" edge="1" parent="1" source="xtCrAzxJujVk2PDd50xc-3">
          <mxGeometry width="50" height="50" relative="1" as="geometry">
            <mxPoint x="320" y="730" as="sourcePoint" />
            <mxPoint x="370" y="680" as="targetPoint" />
            <Array as="points">
              <mxPoint x="260" y="630" />
            </Array>
          </mxGeometry>
        </mxCell>
        <mxCell id="xtCrAzxJujVk2PDd50xc-37" value="" style="endArrow=none;html=1;rounded=0;exitX=1;exitY=0.5;exitDx=0;exitDy=0;" edge="1" parent="1" source="xtCrAzxJujVk2PDd50xc-18">
          <mxGeometry width="50" height="50" relative="1" as="geometry">
            <mxPoint x="710" y="540" as="sourcePoint" />
            <mxPoint x="760" y="490" as="targetPoint" />
          </mxGeometry>
        </mxCell>
      </root>
    </mxGraphModel>
  </diagram>
</mxfile>
